<svg width="443" height="252" viewBox="0 0 443 252" fill="none" xmlns="http://www.w3.org/2000/svg">
<ellipse cx="128.714" cy="98.2565" rx="41" ry="42.5" transform="rotate(4 128.714 98.2565)" fill="#B30000"/>
<circle cx="128.749" cy="97.7577" r="25" transform="rotate(4 128.749 97.7577)" fill="white"/>
<path d="M122.942 180.152L93.6225 120.211L160.318 124.875L122.942 180.152Z" fill="#B30000"/>
<g filter="url(#filter0_d_9_44)">
<path d="M163.63 68.7159C164.833 66.3551 166.598 64.509 168.925 63.1776C171.244 61.753 173.701 60.8332 176.296 60.4182C178.976 59.9017 181.697 59.8516 184.459 60.2679C187.213 60.5908 189.626 61.3195 191.699 62.4539L193.505 95.9882L220.045 60.9608C223.783 58.5662 226.957 57.2546 229.569 57.0262C232.273 56.7895 234.468 57.1615 236.151 58.1419C237.928 59.1143 239.275 60.5471 240.192 62.4405C241.195 64.2324 241.875 66.0995 242.233 68.0418C242.676 69.8826 242.874 71.604 242.826 73.2059C242.863 74.7063 242.758 75.6553 242.511 76.0529L210.895 115.895L248.099 152.817C248.632 155.683 248.424 158.145 247.477 160.202C246.529 162.258 245.179 164.021 243.428 165.49C241.677 166.959 239.664 168.122 237.39 168.979C235.2 169.734 233.088 170.295 231.052 170.661C229.102 170.926 227.368 170.983 225.851 170.834C224.335 170.685 223.458 170.338 223.223 169.795L196.205 139.735L201.362 171.285C200.563 171.825 199.395 172.444 197.859 173.142C196.322 173.84 194.544 174.466 192.525 175.018C190.506 175.571 188.377 175.945 186.139 176.141C184.002 176.422 181.933 176.415 179.934 176.12C178.028 175.817 176.33 175.213 174.842 174.31C173.353 173.406 172.29 171.996 171.652 170.078L163.63 68.7159Z" fill="url(#paint0_linear_9_44)"/>
</g>
<g filter="url(#filter1_d_9_44)">
<path d="M257.198 69.2445C258.637 67.0288 260.58 65.3821 263.026 64.3044C265.474 63.1334 268.007 62.4774 270.623 62.3363C273.335 62.1035 276.039 62.3375 278.734 63.0381C281.431 63.6453 283.748 64.6194 285.686 65.9604L283.981 99.4024L313.95 67.4341C317.906 65.4491 321.19 64.4794 323.804 64.525C326.511 64.5723 328.648 65.1698 330.215 66.3175C331.875 67.4669 333.062 69.0281 333.774 71.0012C334.582 72.8827 335.062 74.805 335.214 76.7684C335.462 78.64 335.478 80.3676 335.264 81.9511C335.144 83.4428 334.941 84.373 334.655 84.7414L299.151 120.955L332.196 161.445C332.425 164.344 331.963 166.763 330.809 168.704C329.654 170.644 328.132 172.252 326.243 173.526C324.353 174.8 322.236 175.743 319.891 176.356C317.641 176.877 315.488 177.213 313.431 177.364C311.47 177.423 309.745 177.299 308.256 176.993C306.768 176.687 305.935 176.252 305.758 175.689L282.099 143.065L283.924 174.888C283.076 175.34 281.854 175.832 280.257 176.364C278.661 176.897 276.832 177.332 274.772 177.669C272.713 178.007 270.563 178.156 268.322 178.117C266.174 178.173 264.124 177.95 262.172 177.449C260.313 176.95 258.693 176.175 257.311 175.124C255.929 174.072 255.021 172.563 254.589 170.594L257.198 69.2445Z" fill="url(#paint1_linear_9_44)"/>
</g>
<g filter="url(#filter2_d_9_44)">
<path d="M372.73 163.08C371.493 164.643 369.721 165.777 367.414 166.484C365.201 167.111 362.792 167.42 360.189 167.411C357.672 167.409 355.083 167.184 352.424 166.738C349.857 166.211 347.511 165.613 345.388 164.944C343.271 164.188 341.546 163.417 340.212 162.629C338.971 161.761 338.414 161.028 338.543 160.429L367.577 71.059C368.684 68.8796 370.366 67.1744 372.622 65.9433C374.965 64.7183 377.539 63.9002 380.345 63.4888C383.158 62.9911 386.076 62.8479 389.099 63.0593C392.208 63.2767 395.084 63.7382 397.725 64.4437C400.367 65.1492 402.645 66.0897 404.559 67.2652C406.479 68.3543 407.696 69.5678 408.21 70.9057L429.538 168.094C426.295 169.777 423.268 170.867 420.455 171.365C417.643 171.863 414.944 171.978 412.359 171.71C409.86 171.449 407.382 170.885 404.925 170.019C402.555 169.158 400.188 168.255 397.824 167.309L394.979 127.919L379.209 126.296L372.73 163.08ZM395.335 106.071C394.752 99.52 393.946 94.9066 392.918 92.2308C391.89 89.5549 390.71 88.4308 389.378 88.8584C388.132 89.2921 386.796 91.0215 385.37 94.0465C384.029 97.0776 382.718 100.935 381.436 105.62L395.335 106.071Z" fill="url(#paint2_linear_9_44)"/>
</g>
<g filter="url(#filter3_d_9_44)">
<path d="M44.279 183.255C37.4735 183.611 31.8799 182.678 27.4983 180.455C23.1111 178.126 19.5888 175.005 16.9313 171.093C14.3801 167.175 12.551 162.792 11.444 157.945C10.4433 153.093 9.86789 148.218 9.71788 143.321C9.56786 138.424 9.70319 133.885 10.1239 129.705C10.6453 125.412 11.1582 121.973 11.6624 119.388C14.0134 117.452 16.3979 116.154 18.8157 115.494C21.3344 114.722 23.6626 114.387 25.8005 114.488C27.9328 114.483 29.816 114.811 31.45 115.472C33.0785 116.026 34.1753 116.608 34.7404 117.219C34.8407 119.133 34.8542 121.424 34.7808 124.094C34.7075 126.764 34.6901 129.483 34.7287 132.254C34.7672 135.024 34.9093 137.736 35.155 140.389C35.3951 142.935 35.8311 145.151 36.4631 147.038C37.0895 148.817 37.9595 150.158 39.073 151.059C40.2873 151.849 41.8879 151.871 43.8748 151.127C45.5762 151.038 46.9449 149.687 47.9808 147.074C49.1231 144.455 49.9074 141.108 50.3336 137.034C50.8662 132.954 51.0547 128.413 50.8991 123.409C50.738 118.3 50.2606 113.26 49.467 108.29C48.7797 103.314 47.7874 98.6213 46.49 94.2109C45.187 89.6942 43.6571 85.9357 41.9005 82.9356L27.2512 84.1831C26.1822 84.1325 24.6378 83.1472 22.6179 81.2271C20.7043 79.3014 19.1378 76.8778 17.9184 73.9561C16.8053 71.0288 16.4254 67.8499 16.7788 64.4193C17.2385 60.9831 19.2567 57.7851 22.8336 54.8253L91.3703 50.2738C94.0566 50.6661 96.1018 52.0517 97.506 54.4306C98.9047 56.7031 99.6344 59.4372 99.6953 62.6329C99.8569 65.7166 99.2769 68.8926 97.9554 72.1607C96.7346 75.3169 94.7389 77.9272 91.9681 79.9917L75.9 81.6335C76.3913 86.9392 77.0335 93.09 77.8267 100.086C78.7262 107.076 79.3178 114.296 79.6016 121.745C79.8797 129.088 79.6739 136.349 78.9839 143.53C78.4002 150.704 76.8737 157.182 74.4043 162.963C71.9294 168.637 68.285 173.36 63.4711 177.131C58.6516 180.795 52.2542 182.837 44.279 183.255Z" fill="url(#paint3_linear_9_44)"/>
</g>
<defs>
<filter id="filter0_d_9_44" x="157.804" y="54.2947" width="98.1453" height="131.848" filterUnits="userSpaceOnUse" color-interpolation-filters="sRGB">
<feFlood flood-opacity="0" result="BackgroundImageFix"/>
<feColorMatrix in="SourceAlpha" type="matrix" values="0 0 0 0 0 0 0 0 0 0 0 0 0 0 0 0 0 0 127 0" result="hardAlpha"/>
<feOffset dy="4.325"/>
<feGaussianBlur stdDeviation="2.1625"/>
<feComposite in2="hardAlpha" operator="out"/>
<feColorMatrix type="matrix" values="0 0 0 0 0 0 0 0 0 0 0 0 0 0 0 0 0 0 0.25 0"/>
<feBlend mode="normal" in2="BackgroundImageFix" result="effect1_dropShadow_9_44"/>
<feBlend mode="normal" in="SourceGraphic" in2="effect1_dropShadow_9_44" result="shape"/>
</filter>
<filter id="filter1_d_9_44" x="250.147" y="61.6694" width="90.0393" height="126.356" filterUnits="userSpaceOnUse" color-interpolation-filters="sRGB">
<feFlood flood-opacity="0" result="BackgroundImageFix"/>
<feColorMatrix in="SourceAlpha" type="matrix" values="0 0 0 0 0 0 0 0 0 0 0 0 0 0 0 0 0 0 127 0" result="hardAlpha"/>
<feOffset dy="4.31243"/>
<feGaussianBlur stdDeviation="2.15622"/>
<feComposite in2="hardAlpha" operator="out"/>
<feColorMatrix type="matrix" values="0 0 0 0 0 0 0 0 0 0 0 0 0 0 0 0 0 0 0.25 0"/>
<feBlend mode="normal" in2="BackgroundImageFix" result="effect1_dropShadow_9_44"/>
<feBlend mode="normal" in="SourceGraphic" in2="effect1_dropShadow_9_44" result="shape"/>
</filter>
<filter id="filter2_d_9_44" x="333.978" y="60.006" width="106.671" height="121.012" filterUnits="userSpaceOnUse" color-interpolation-filters="sRGB">
<feFlood flood-opacity="0" result="BackgroundImageFix"/>
<feColorMatrix in="SourceAlpha" type="matrix" values="0 0 0 0 0 0 0 0 0 0 0 0 0 0 0 0 0 0 127 0" result="hardAlpha"/>
<feOffset dy="4"/>
<feGaussianBlur stdDeviation="2"/>
<feComposite in2="hardAlpha" operator="out"/>
<feColorMatrix type="matrix" values="0 0 0 0 0 0 0 0 0 0 0 0 0 0 0 0 0 0 0.25 0"/>
<feBlend mode="normal" in2="BackgroundImageFix" result="effect1_dropShadow_9_44"/>
<feBlend mode="normal" in="SourceGraphic" in2="effect1_dropShadow_9_44" result="shape"/>
</filter>
<filter id="filter3_d_9_44" x="-1.85966e-05" y="49.8642" width="110.926" height="144.934" filterUnits="userSpaceOnUse" color-interpolation-filters="sRGB">
<feFlood flood-opacity="0" result="BackgroundImageFix"/>
<feColorMatrix in="SourceAlpha" type="matrix" values="0 0 0 0 0 0 0 0 0 0 0 0 0 0 0 0 0 0 127 0" result="hardAlpha"/>
<feOffset dy="4.91899"/>
<feGaussianBlur stdDeviation="2.4595"/>
<feComposite in2="hardAlpha" operator="out"/>
<feColorMatrix type="matrix" values="0 0 0 0 0 0 0 0 0 0 0 0 0 0 0 0 0 0 0.25 0"/>
<feBlend mode="normal" in2="BackgroundImageFix" result="effect1_dropShadow_9_44"/>
<feBlend mode="normal" in="SourceGraphic" in2="effect1_dropShadow_9_44" result="shape"/>
</filter>
<linearGradient id="paint0_linear_9_44" x1="197.425" y1="15.7042" x2="216.338" y2="231.878" gradientUnits="userSpaceOnUse">
<stop stop-color="#F9E7A9"/>
<stop offset="0.966346" stop-color="#FF761C"/>
</linearGradient>
<linearGradient id="paint1_linear_9_44" x1="295.85" y1="20.733" x2="292.08" y2="236.7" gradientUnits="userSpaceOnUse">
<stop stop-color="#BCE549"/>
<stop offset="1" stop-color="#339637"/>
</linearGradient>
<linearGradient id="paint2_linear_9_44" x1="393.988" y1="23.4181" x2="379.967" y2="223.928" gradientUnits="userSpaceOnUse">
<stop stop-color="#F2AFC3"/>
<stop offset="0.841346" stop-color="#AE6ACA"/>
</linearGradient>
<linearGradient id="paint3_linear_9_44" x1="50.8782" y1="2.66185" x2="41.5866" y2="197.5" gradientUnits="userSpaceOnUse">
<stop offset="0.245192" stop-color="#2ED3CC"/>
<stop offset="0.884615" stop-color="#24A1D1"/>
</linearGradient>
</defs>
</svg>
